<svg width="38" height="25" viewBox="0 0 38 25" fill="none" xmlns="http://www.w3.org/2000/svg">
<path id="menu" d="M2.50015 24.6815C1.55946 24.6815 0.796875 23.919 0.796875 22.9783C0.796875 22.0376 1.55946 21.275 2.50015 21.275H35.5001C36.4408 21.275 37.2034 22.0376 37.2034 22.9783C37.2034 23.919 36.4408 24.6815 35.5001 24.6815H2.50015ZM2.50013 14.05C1.55945 14.05 0.796875 13.2874 0.796875 12.3468C0.796875 11.4061 1.55945 10.6435 2.50013 10.6435H35.5001C36.4408 10.6435 37.2034 11.4061 37.2034 12.3468C37.2034 13.2874 36.4408 14.05 35.5001 14.05H2.50013ZM2.50613 3.4185C1.56213 3.4185 0.796875 2.65324 0.796875 1.70925C0.796875 0.765257 1.56213 0 2.50613 0H35.4941C36.4381 0 37.2034 0.765257 37.2034 1.70925C37.2034 2.65324 36.4381 3.4185 35.4941 3.4185H2.50613Z" fill="#092172"/>
</svg>
