<?xml version="1.0" encoding="UTF-8" standalone="no"?>
<svg height="100%" stroke-miterlimit="10" style="fill-rule:nonzero;clip-rule:evenodd;stroke-linecap:round;stroke-linejoin:round;" version="1.1" viewBox="13.3084 3.87955 160.383 334.241" width="100%" xml:space="preserve" xmlns="http://www.w3.org/2000/svg" xmlns:vectornator="http://vectornator.io" xmlns:xlink="http://www.w3.org/1999/xlink">
<defs/>
<g id="Layer-1" vectornator:layerName="Layer 1">
<path d="M173.692 3.87955L173.475 53.7642C173.475 53.7642 173.169 71.748 148.692 86.3032L85.2022 122.238C85.2022 122.238 50.6614 139.784 76.1917 168.793C76.1917 168.793 89.8428 181.699 88.8244 191.152C88.8244 191.152 90.6794 198.446 79.3711 205.609L40.8358 225.822C40.8358 225.822 18.8661 234.157 13.8766 214.904L13.7104 165.12C13.7104 165.12 13.1895 125.613 44.93 101.171L173.692 3.87955Z" fill="#ffffff" fill-rule="nonzero" opacity="1" stroke="none" vectornator:layerName="Curve 2"/>
<path d="M13.3084 338.12L13.5254 288.236C13.5254 288.236 13.8313 270.252 38.3079 255.697L101.798 219.762C101.798 219.762 136.339 202.216 110.808 173.207C110.808 173.207 97.1572 160.301 98.1756 150.848C98.1756 150.848 96.3206 143.554 107.629 136.391L146.164 116.178C146.164 116.178 168.134 107.843 173.123 127.096L173.29 176.88C173.29 176.88 173.811 216.387 142.07 240.829L13.3084 338.12Z" fill="#ffffff" fill-rule="nonzero" opacity="1" stroke="none" vectornator:layerName="Curve 1"/>
</g>
</svg>
