<svg xmlns="http://www.w3.org/2000/svg" width="40" height="45" viewBox="0 0 78 79" fill="none">
	<path
		d="M73.038 78.0625C63.7736 78.0625 54.7426 75.9978 45.945 71.8683C37.1474 67.7388 29.3553 62.2807 22.5685 55.494C15.7818 48.7072 10.3237 40.9151 6.19423 32.1175C2.06474 23.3199 0 14.2889 0 5.02448C0 3.73177 0.430903 2.65451 1.29271 1.79271C2.15451 0.930903 3.23177 0.5 4.52448 0.5H21.976C22.9815 0.5 23.8792 0.823177 24.6692 1.46953C25.4592 2.11589 25.926 2.94178 26.0696 3.94722L28.8705 19.0288C29.0141 20.0343 28.9962 20.9499 28.8166 21.7758C28.6371 22.6017 28.2241 23.3378 27.5778 23.9842L17.1284 34.5413C20.1447 39.7122 23.9331 44.5598 28.4934 49.0843C33.0538 53.6088 38.0631 57.5228 43.5212 60.8264L53.6474 50.7002C54.2937 50.0538 55.1376 49.5691 56.179 49.2459C57.2203 48.9227 58.2437 48.8329 59.2491 48.9766L74.1153 51.9929C75.1207 52.2083 75.9466 52.6931 76.593 53.4472C77.2393 54.2013 77.5625 55.081 77.5625 56.0865V73.538C77.5625 74.8307 77.1316 75.908 76.2698 76.7698C75.408 77.6316 74.3307 78.0625 73.038 78.0625ZM13.0348 26.3542L20.1447 19.2443L18.3134 9.11806H8.72578C9.08487 12.0626 9.58759 14.9712 10.2339 17.8438C10.8803 20.7165 11.8139 23.5533 13.0348 26.3542ZM51.6006 64.92C54.4015 66.1409 57.2562 67.1104 60.1648 67.8286C63.0734 68.5467 65.9999 69.0135 68.9444 69.229V59.7491L58.8182 57.7023L51.6006 64.92Z"
		fill="#1272AB"
	/>
</svg>