<svg xmlns="http://www.w3.org/2000/svg" width="40" height="45" viewBox="0 0 78 97" fill="none">
	<path
		d="M38.7812 48.4766C41.4475 48.4766 43.7299 47.5272 45.6286 45.6286C47.5272 43.7299 48.4766 41.4475 48.4766 38.7812C48.4766 36.115 47.5272 33.8326 45.6286 31.9339C43.7299 30.0353 41.4475 29.0859 38.7812 29.0859C36.115 29.0859 33.8326 30.0353 31.9339 31.9339C30.0353 33.8326 29.0859 36.115 29.0859 38.7812C29.0859 41.4475 30.0353 43.7299 31.9339 45.6286C33.8326 47.5272 36.115 48.4766 38.7812 48.4766ZM38.7812 84.1068C48.6382 75.0579 55.95 66.8371 60.7169 59.4444C65.4838 52.0517 67.8672 45.4872 67.8672 39.7508C67.8672 30.9442 65.0596 23.7333 59.4444 18.1181C53.8292 12.5029 46.9415 9.69531 38.7812 9.69531C30.621 9.69531 23.7333 12.5029 18.1181 18.1181C12.5029 23.7333 9.69531 30.9442 9.69531 39.7508C9.69531 45.4872 12.0787 52.0517 16.8456 59.4444C21.6125 66.8371 28.9243 75.0579 38.7812 84.1068ZM38.7812 96.9531C25.7734 85.8843 16.0579 75.6032 9.63472 66.1099C3.21157 56.6166 0 47.8302 0 39.7508C0 27.6316 3.89832 17.9767 11.695 10.786C19.4916 3.59535 28.5204 0 38.7812 0C49.0421 0 58.0709 3.59535 65.8675 10.786C73.6642 17.9767 77.5625 27.6316 77.5625 39.7508C77.5625 47.8302 74.3509 56.6166 67.9278 66.1099C61.5046 75.6032 51.7891 85.8843 38.7812 96.9531Z"
		fill="#1272AB"
	/>
</svg>