<svg xmlns="http://www.w3.org/2000/svg" width="40" height="45" viewBox="0 0 79 63" fill="none">
	<path
		d="M8.475 62.5515C6.34203 62.5515 4.51608 61.792 2.99715 60.2731C1.47822 58.7541 0.71875 56.9282 0.71875 54.7952V8.25771C0.71875 6.12475 1.47822 4.2988 2.99715 2.77986C4.51608 1.26093 6.34203 0.501465 8.475 0.501465H70.525C72.658 0.501465 74.4839 1.26093 76.0029 2.77986C77.5218 4.2988 78.2812 6.12475 78.2812 8.25771V54.7952C78.2812 56.9282 77.5218 58.7541 76.0029 60.2731C74.4839 61.792 72.658 62.5515 70.525 62.5515H8.475ZM39.5 35.4046L8.475 16.014V54.7952H70.525V16.014L39.5 35.4046ZM39.5 27.6483L70.525 8.25771H8.475L39.5 27.6483ZM8.475 16.014V8.25771V54.7952V16.014Z"
		fill="#1272AB"
	/>
</svg>